<svg xmlns="http://www.w3.org/2000/svg" viewBox="0 0 180 180" fill="none">
  <defs>
    <linearGradient id="sb-bg" x1="20" y1="20" x2="160" y2="160" gradientUnits="userSpaceOnUse">
      <stop stop-color="#0a0f1e"/>
      <stop offset="1" stop-color="#0d1428"/>
    </linearGradient>
    <linearGradient id="sb-stroke" x1="8" y1="8" x2="92" y2="96" gradientUnits="userSpaceOnUse">
      <stop stop-color="#22d3ee"/>
      <stop offset="0.45" stop-color="#2563eb"/>
      <stop offset="1" stop-color="#10b981"/>
    </linearGradient>
    <linearGradient id="sb-spark" x1="46" y1="0" x2="54" y2="12" gradientUnits="userSpaceOnUse">
      <stop stop-color="#c084fc"/>
      <stop offset="1" stop-color="#7c3aed"/>
    </linearGradient>
    <radialGradient id="sb-glow" cx="50%" cy="42%" r="50%">
      <stop stop-color="#2563eb" stop-opacity="0.18"/>
      <stop offset="1" stop-color="#2563eb" stop-opacity="0"/>
    </radialGradient>
  </defs>
  <rect width="180" height="180" rx="40" fill="url(#sb-bg)"/>
  <rect width="180" height="180" rx="40" fill="url(#sb-glow)"/>
  <g transform="translate(20 18) scale(1.4)">
    <g stroke="url(#sb-spark)" stroke-width="1.4" stroke-linecap="round">
      <path d="M50 1.5 L51.2 4.8 L54.5 4.8 L51.8 6.8 L52.8 10 L50 8.2 L47.2 10 L48.2 6.8 L45.5 4.8 L48.8 4.8 Z" fill="url(#sb-spark)" stroke="none"/>
      <line x1="50" y1="1" x2="50" y2="-1.5" opacity="0.85"/>
      <line x1="53.5" y1="2.5" x2="55" y2="1.5" opacity="0.7"/>
      <line x1="46.5" y1="2.5" x2="45" y2="1.5" opacity="0.7"/>
      <line x1="55" y1="5.5" x2="57" y2="5.5" opacity="0.55"/>
      <line x1="45" y1="5.5" x2="43" y2="5.5" opacity="0.55"/>
    </g>
    <g stroke="url(#sb-stroke)" stroke-width="1.55" stroke-linecap="round" fill="none">
      <path d="M26 37.5 C31 32.5 36 28 42 24"/>
      <path d="M58 24 C64 28 69 32.5 74 37.5"/>
      <path d="M74 42 C78 48 78 56 74 62"/>
      <path d="M74 66.5 C69 71.5 64 76 58 80"/>
      <path d="M42 80 C36 76 31 71.5 26 66.5"/>
      <path d="M26 62 C22 56 22 48 26 42"/>
      <ellipse cx="34" cy="30" rx="2.2" ry="1.5" transform="rotate(-30 34 30)"/>
      <ellipse cx="40" cy="26.5" rx="2.2" ry="1.5" transform="rotate(-30 40 26.5)"/>
      <ellipse cx="60" cy="26.5" rx="2.2" ry="1.5" transform="rotate(30 60 26.5)"/>
      <ellipse cx="66" cy="30" rx="2.2" ry="1.5" transform="rotate(30 66 30)"/>
      <ellipse cx="71" cy="46" rx="1.5" ry="2.2"/>
      <ellipse cx="71" cy="52" rx="1.5" ry="2.2"/>
      <ellipse cx="66" cy="68" rx="2.2" ry="1.5" transform="rotate(30 66 68)"/>
      <ellipse cx="60" cy="71.5" rx="2.2" ry="1.5" transform="rotate(30 60 71.5)"/>
      <ellipse cx="40" cy="71.5" rx="2.2" ry="1.5" transform="rotate(-30 40 71.5)"/>
      <ellipse cx="34" cy="68" rx="2.2" ry="1.5" transform="rotate(-30 34 68)"/>
      <ellipse cx="29" cy="52" rx="1.5" ry="2.2"/>
      <ellipse cx="29" cy="46" rx="1.5" ry="2.2"/>
    </g>
    <g stroke="url(#sb-stroke)" stroke-width="1.35" stroke-linecap="round" opacity="0.9">
      <line x1="50" y1="52" x2="50" y2="22"/>
      <line x1="50" y1="52" x2="76" y2="36"/>
      <line x1="50" y1="52" x2="76" y2="68"/>
      <line x1="50" y1="52" x2="50" y2="82"/>
      <line x1="50" y1="52" x2="24" y2="68"/>
      <line x1="50" y1="52" x2="24" y2="36"/>
    </g>
    <g stroke="url(#sb-stroke)" stroke-width="1.5" fill="none" stroke-linecap="round" stroke-linejoin="round">
      <circle cx="24" cy="36" r="7.5"/>
      <line x1="24" y1="33" x2="24" y2="39"/>
      <circle cx="24" cy="40.2" r="1.3" fill="url(#sb-stroke)" stroke="none"/>
      <circle cx="50" cy="22" r="7.5"/>
      <circle cx="76" cy="36" r="7.5"/>
      <rect x="72.8" y="34.2" width="6.4" height="4.2" rx="0.8"/>
      <path d="M79.2 35.2 L81.2 34.2 V38.4 L79.2 37.4"/>
      <circle cx="76" cy="68" r="7.5"/>
      <path d="M76 63.8 C73.8 63.8 72.2 65.8 72.2 67.8 C72.2 69.5 73.2 70.8 74.5 71.5 V73 H77.5 V71.5 C78.8 70.8 79.8 69.5 79.8 67.8 C79.8 65.8 78.2 63.8 76 63.8"/>
      <line x1="74.3" y1="73.2" x2="77.7" y2="73.2"/>
      <circle cx="50" cy="82" r="7.5"/>
      <path d="M50 78.2 C47.2 78.2 44.8 79.2 43 81"/>
      <path d="M50 80 C48.6 80 47.4 80.6 46.5 81.5"/>
      <circle cx="50" cy="83.2" r="0.9" fill="url(#sb-stroke)" stroke="none"/>
      <circle cx="24" cy="68" r="7.5"/>
      <path d="M20.5 71 V65.5 H23.5 L24.5 64 L25.5 65.5 H28.5 V71"/>
      <line x1="22" y1="71" x2="27" y2="71"/>
    </g>
    <g stroke="url(#sb-stroke)" stroke-width="1.55" stroke-linecap="round" fill="none">
      <rect x="41" y="44" width="18" height="18" rx="2.8"/>
      <line x1="41" y1="47.5" x2="37.5" y2="47.5"/>
      <line x1="41" y1="52" x2="37.5" y2="52"/>
      <line x1="41" y1="56.5" x2="37.5" y2="56.5"/>
      <line x1="59" y1="47.5" x2="62.5" y2="47.5"/>
      <line x1="59" y1="52" x2="62.5" y2="52"/>
      <line x1="59" y1="56.5" x2="62.5" y2="56.5"/>
      <line x1="47.5" y1="44" x2="47.5" y2="40.5"/>
      <line x1="52.5" y1="44" x2="52.5" y2="40.5"/>
      <line x1="47.5" y1="62" x2="47.5" y2="65.5"/>
      <line x1="52.5" y1="62" x2="52.5" y2="65.5"/>
      <line x1="50" y1="47" x2="50" y2="52"/>
      <line x1="50" y1="52" x2="46.5" y2="57.5"/>
      <line x1="50" y1="52" x2="53.5" y2="57.5"/>
      <circle cx="50" cy="47" r="1.15" fill="url(#sb-stroke)" stroke="none"/>
      <circle cx="46.5" cy="57.5" r="1" fill="url(#sb-stroke)" stroke="none"/>
      <circle cx="53.5" cy="57.5" r="1" fill="url(#sb-stroke)" stroke="none"/>
    </g>
  </g>
</svg>
